<?xml version="1.0" encoding="utf-8"?>
<!-- Generator: Adobe Illustrator 26.0.1, SVG Export Plug-In . SVG Version: 6.00 Build 0)  -->
<svg version="1.1" id="Layer_1" xmlns="http://www.w3.org/2000/svg" xmlns:xlink="http://www.w3.org/1999/xlink" x="0px" y="0px"
	 viewBox="0 0 1190.55 841.89" style="enable-background:new 0 0 1190.55 841.89;" xml:space="preserve">
<style type="text/css">
	.st0{fill:#FFFFFF;}
</style>
<g>
	<g>
		<circle class="st0" cx="232.26" cy="362.14" r="4.63"/>
		<path class="st0" d="M217.17,283.37c-78.71,0-142.52,63.81-142.52,142.52s63.81,142.52,142.52,142.52s142.52-63.81,142.52-142.52
			S295.88,283.37,217.17,283.37z M311.84,463.57c-0.14,1.15-0.31,2.3-0.53,3.43c-2.68,13.49-12.53,23.08-24.96,29.35
			c-5.57,2.81-14.06,0.07-7.99-3.87c2.67-1.74,8.38-5.02,10.8-7.1c18.17-15.66,9.48-49.01-3.8-67.05c-3.71-5.04-3.81-5.59-5.96-9.22
			l-47.85,86.24c-4.53,8.28-14.26,15.51-28.76,15.12c-17.37-0.47-31.2-10.12-30.89-21.55c0.31-11.43,14.64-20.31,32.01-19.84
			c12.5,0.34,23.31,5.13,28.19,12.22l8.63-15.48l-17.99-12.33c-10.24,6.51-22.39,10.3-35.43,10.3c-12.62,0-24.41-3.54-34.44-9.67
			c13.21-8.86,22.72-17.51,22.72-17.51c-7.13,4.22-17.76,9.67-27.34,14.41c-1.76-1.29-3.46-2.67-5.09-4.13
			c-9.37,7.53-20.57,14.51-31.87,16.91l6.52-15.69c0,0,9.04-4.21,19.96-9.59c12.56-7.59,25.84-19.94,37.35-35.72
			c7.5-10.28,13.38-20.84,17.51-30.9c0.29-5.82,2.15-11.23,5.15-15.83c4.63-7.09,11.99-12.22,20.59-13.92
			c1.88-0.56,3.86-0.86,5.92-0.86c1.69,0,3.34,0.21,4.92,0.59c7.66,1.49,13.96,6.74,16.95,13.75l14.07,8.12
			c0.96,0.56,0.96,1.94,0,2.5l-11.57,6.68c2.01,4.98,3.45,10.25,4.2,15.74c0.4,2.94,0.61,5.93,0.61,8.98
			c0,8.73-1.71,17.06-4.78,24.7l22.46-11.03l24.58-44.09c0.14-0.26,0.28-0.52,0.42-0.77c0.64-1.16,1.38-2.63,2.8-2.31
			c1.66,0.38,4.2,2.22,4.43,4c0-0.01,0.01-0.01,0.01-0.02c-0.01,0.02-0.01,0.04-0.01,0.06c0.02,0.17,0.05,0.33,0.02,0.5
			c-0.12,0.77-0.38,1.58-0.68,2.34c-2.34,11.36,1.37,15.57,8.08,27.61c8.17,14.64,14.68,33.42,11.4,49.87
			C322.18,448.5,320.1,456.59,311.84,463.57z"/>
		<path class="st0" d="M227.63,450.08l15.84,10.85l22.89-41.05l-21.65,10.64C240.35,438.12,234.53,444.76,227.63,450.08z"/>
		<path class="st0" d="M290.23,393.89c1.98,7.94,5.67,16.05,9.68,23.24c5.7,10.23,10.59,22.47,11.9,34.53
			c0.16-0.32,0.25-0.5,0.25-0.5c7.52-20.21-0.61-34.9-15.83-51.34C293.22,396.58,291.37,395.57,290.23,393.89z"/>
	</g>
	<g>
		<path class="st0" d="M453.52,488.43c-5.86,0-11.54-0.66-17.05-1.99c-5.51-1.32-10.71-3.52-15.59-6.59c-3.91-2.51-6-5.4-6.28-8.68
			c-0.28-3.28,0.91-6.38,3.56-9.31c2.65-2.79,5.4-4.15,8.26-4.08c2.86,0.07,6.24,1.22,10.15,3.45c5.44,2.93,11.57,4.39,18.41,4.39
			c5.3,0,9-0.66,11.09-1.99c2.09-1.32,3.14-3.8,3.14-7.43c0-1.53-0.52-2.89-1.57-4.08c-1.05-1.18-3.21-2.3-6.49-3.35
			c-3.28-1.05-8.19-2.2-14.75-3.45c-10.18-1.95-18.03-5.3-23.54-10.04c-5.51-4.74-8.26-11.85-8.26-21.34
			c0-6.28,1.67-11.75,5.02-16.42c3.35-4.67,7.91-8.3,13.7-10.88c5.79-2.58,12.31-3.87,19.56-3.87c9.9,0,18.83,1.81,26.78,5.44
			c4.18,2.09,6.59,4.74,7.22,7.95c0.63,3.21-0.25,6.35-2.61,9.41c-2.37,3.07-4.99,4.64-7.85,4.71c-2.86,0.07-6.31-0.66-10.36-2.2
			c-2.09-0.84-4.18-1.43-6.28-1.78c-2.09-0.35-4.26-0.52-6.49-0.52c-4.6,0-7.74,0.73-9.41,2.2c-1.67,1.46-2.51,3.17-2.51,5.13
			c0,1.4,0.42,2.65,1.26,3.77c0.84,1.12,2.65,2.2,5.44,3.24c2.79,1.05,7.11,2.27,12.97,3.66c11.57,2.65,20.32,6.66,26.25,12.03
			c5.93,5.37,8.89,12.52,8.89,21.44c0,10.46-4.01,18.27-12.03,23.43C476.15,485.85,465.93,488.43,453.52,488.43z"/>
		<path class="st0" d="M526.74,526.92c-8.79,0-13.18-4.6-13.18-13.81v-113.8c0-9.2,3.83-13.81,11.51-13.81
			c7.53,0,11.51,1.54,11.92,4.6l0.63,4.81c7.11-7.95,15.9-11.92,26.36-11.92c9.48,0,17.92,2.06,25.31,6.17
			c7.39,4.12,13.21,10.11,17.47,17.99c4.25,7.88,6.38,17.47,6.38,28.77c0,11.16-2.13,20.68-6.38,28.56
			c-4.26,7.88-10.08,13.88-17.47,17.99c-7.39,4.11-15.83,6.17-25.31,6.17c-9.07,0-17.09-3.14-24.06-9.41v33.89
			C539.92,522.32,535.52,526.92,526.74,526.92z M562.93,464.79c6.69,0,12.31-2.47,16.84-7.43c4.53-4.95,6.8-12.1,6.8-21.44
			c0-9.48-2.27-16.7-6.8-21.65c-4.53-4.95-10.15-7.43-16.84-7.43s-12.27,2.48-16.74,7.43c-4.46,4.95-6.69,12.17-6.69,21.65
			c0,9.34,2.23,16.49,6.69,21.44C550.65,462.31,556.23,464.79,562.93,464.79z"/>
		<path class="st0" d="M664.6,487.59c-11.02,0.56-20.19-1.81-27.51-7.11c-7.32-5.3-10.98-12.97-10.98-23.01
			c0-7.11,2.12-13.21,6.38-18.31c4.25-5.09,9.76-9.06,16.53-11.92c6.76-2.86,13.77-4.36,21.02-4.5c3.21-0.28,6.28-0.03,9.21,0.73
			c2.93,0.77,5.65,1.78,8.16,3.03v-6.69c0-5.86-1.25-9.66-3.77-11.4c-2.51-1.74-6.07-2.62-10.67-2.62c-3.77,0-7.64,0.45-11.61,1.36
			c-3.97,0.91-7.84,2.13-11.61,3.66c-4.05,1.67-7.5,2.27-10.36,1.78c-2.86-0.49-5.27-2.33-7.22-5.54c-1.81-3.21-2.23-6.31-1.25-9.31
			c0.97-3,3.56-5.4,7.74-7.22c5.02-2.23,10.42-4.04,16.21-5.44c5.79-1.39,11.82-2.09,18.1-2.09c12.97,0,22.8,2.65,29.5,7.95
			c6.69,5.3,10.04,14.92,10.04,28.87v43.93c0,1.4,0.07,2.37,0.21,2.93c0.42,1.96,1.22,3.24,2.41,3.87c1.18,0.63,2.41,1.05,3.66,1.26
			c1.26,0.21,2.33,0.49,3.24,0.84c0.91,0.35,1.36,1.22,1.36,2.61c0,2.65-0.73,5.02-2.2,7.11c-1.46,2.09-3.87,3.49-7.22,4.18
			c-1.54,0.28-3.14,0.52-4.81,0.73s-3.42,0.31-5.23,0.31c-8.23,0-13.46-2.79-15.69-8.37C681.82,484.11,673.94,486.89,664.6,487.59z
			 M663.97,465c7.39-0.42,13.28-1.85,17.68-4.29c4.39-2.44,6.45-5.82,6.17-10.15c-0.14-3.21-1.71-5.3-4.71-6.28
			c-3-0.97-6.66-1.32-10.98-1.05c-6.42,0.28-11.51,1.92-15.27,4.92c-3.77,3-5.58,6.17-5.44,9.52c0.14,2.37,1.22,4.22,3.24,5.54
			C656.68,464.55,659.79,465.14,663.97,465z"/>
		<path class="st0" d="M754.97,486.34c-8.79,0-13.18-4.6-13.18-13.81v-73.22c0-9.2,4.6-13.81,13.81-13.81c2.93,0,5.58,0.73,7.95,2.2
			c2.37,1.46,3.56,4.22,3.56,8.26v3.14c2.51-4.88,6.34-8.79,11.51-11.72c5.16-2.93,10.6-4.39,16.32-4.39
			c4.46,0,7.88,1.36,10.25,4.08c2.37,2.72,3.56,6.17,3.56,10.35c0,3.91-1.05,6.8-3.14,8.68s-4.32,2.69-6.69,2.41
			c-1.12-0.14-2.34-0.24-3.66-0.31c-1.33-0.07-2.76-0.1-4.29-0.1c-6.42,0-11.82,2.06-16.21,6.17c-4.39,4.12-6.59,10.15-6.59,18.1
			v40.17C768.15,481.73,763.76,486.34,754.97,486.34z"/>
		<path class="st0" d="M835.09,486.34c-8.79,0-13.18-4.6-13.18-13.81v-73.22c0-9.2,4.6-13.81,13.81-13.81c2.93,0,5.58,0.73,7.95,2.2
			c2.37,1.46,3.56,4.22,3.56,8.26v3.14c2.51-4.88,6.34-8.79,11.51-11.72c5.16-2.93,10.6-4.39,16.32-4.39
			c4.46,0,7.88,1.36,10.25,4.08c2.37,2.72,3.56,6.17,3.56,10.35c0,3.91-1.05,6.8-3.14,8.68s-4.32,2.69-6.69,2.41
			c-1.12-0.14-2.34-0.24-3.66-0.31c-1.33-0.07-2.76-0.1-4.29-0.1c-6.42,0-11.82,2.06-16.21,6.17c-4.39,4.12-6.59,10.15-6.59,18.1
			v40.17C848.27,481.73,843.88,486.34,835.09,486.34z"/>
		<path class="st0" d="M945.97,488.64c-9.34,0-17.75-2.16-25.21-6.48c-7.46-4.32-13.32-10.46-17.57-18.41
			c-4.26-7.95-6.38-17.22-6.38-27.82c0-10.74,2.12-20.05,6.38-27.93c4.25-7.88,10.11-14.02,17.57-18.41
			c7.46-4.39,15.86-6.59,25.21-6.59c9.48,0,17.92,2.2,25.31,6.59c7.39,4.39,13.21,10.53,17.47,18.41
			c4.25,7.88,6.38,17.19,6.38,27.93c0,10.6-2.13,19.87-6.38,27.82c-4.26,7.95-10.08,14.09-17.47,18.41
			C963.89,486.47,955.45,488.64,945.97,488.64z M945.97,464.79c6.69,0,12.17-2.47,16.42-7.43c4.25-4.95,6.38-12.1,6.38-21.44
			c0-9.48-2.13-16.7-6.38-21.65c-4.26-4.95-9.73-7.43-16.42-7.43s-12.1,2.48-16.21,7.43c-4.12,4.95-6.17,12.17-6.17,21.65
			c0,9.34,2.06,16.49,6.17,21.44C933.87,462.31,939.27,464.79,945.97,464.79z"/>
		<path class="st0" d="M1041.78,486.34c-7.53,0-12.48-3.9-14.85-11.71l-20.92-73.64c-1.4-4.74-1.36-8.51,0.1-11.3
			c1.46-2.79,4.15-4.18,8.05-4.18h0.21c8.09,0,13.18,3.98,15.27,11.92l13.18,52.09l13.39-52.09c2.09-7.95,6.76-11.92,14.02-11.92
			c7.11,0,11.71,3.98,13.81,11.92l13.18,52.09l13.39-52.09c2.09-7.95,7.18-11.92,15.27-11.92c3.9,0,6.62,1.4,8.16,4.18
			c1.53,2.79,1.6,6.56,0.21,11.3l-21.13,73.64c-2.37,7.81-7.32,11.71-14.85,11.71c-7.67,0-12.55-3.97-14.64-11.92l-13.6-52.72
			l-13.6,52.72C1054.33,482.36,1049.45,486.34,1041.78,486.34z"/>
	</g>
</g>
</svg>
